<svg id="Element" xmlns="http://www.w3.org/2000/svg" width="470" height="151.013" viewBox="0 0 470 151.013">
  <g id="Group" transform="translate(9.447 28.274)">
    <path id="Shape" d="M82.018,0l-.248,64.9S57.523,66.784,44.72,69.629,6.141,74.665,6.141,74.665L.1,22.709s-2.668-5.532,19.633-12.577C31.617,6.379,82.018,0,82.018,0" transform="translate(0.947 3.286)" fill="#fff"/>
    <path id="Shape-2" data-name="Shape" d="M6.946,76.275a.8.8,0,0,1-.8-.712L.119,23.708A3.221,3.221,0,0,1,.346,21.4C1.465,18.8,5.835,14.739,20.3,10.17a132.6,132.6,0,0,1,14.45-3.126c5.545-.983,12.416-2.079,20.422-3.257,13.576-2,26.163-3.6,27.554-3.78a.8.8,0,0,1,.9.8L83.38,65.7a.8.8,0,0,1-.742.8c-.055,0-6.119.479-13.834,1.315-6.943.752-16.587,1.953-23.1,3.4-12.724,2.826-38.431,5.03-38.685,5.051ZM82.017,1.72c-3.526.454-16.046,2.086-29.138,4.044-16.746,2.5-27.546,4.5-32.1,5.942C6.165,16.322,2.628,20.158,1.82,22.034a1.891,1.891,0,0,0-.192,1.131.829.829,0,0,1,.075.257L7.654,74.6c4.3-.384,26.317-2.424,37.7-4.953C56.843,67.1,77.71,65.294,81.776,64.959Z" transform="translate(0.141 2.48)"/>
    <path id="Shape-3" data-name="Shape" d="M39.713,20.022l.822,75.27s-14.754-.859-26.851-8.28A79.437,79.437,0,0,1,1.746,77.994L0,0S1.844,8.5,17.812,14.926c10.008,4.019,21.9,5.1,21.9,5.1" transform="translate(0.804 24.736)" fill="#fff"/>
    <path id="Shape-4" data-name="Shape" d="M41.339,96.9h-.046A63.429,63.429,0,0,1,32,95.479a67.832,67.832,0,0,1-8.646-2.529A52.579,52.579,0,0,1,14.069,88.5,81.152,81.152,0,0,1,2,79.382a.8.8,0,0,1-.25-.564L0,.823A.8.8,0,0,1,.708.007.826.826,0,0,1,.812,0a.794.794,0,0,1,.777.635A13.254,13.254,0,0,0,4.522,5.529a27.928,27.928,0,0,0,5.235,4.626,46.435,46.435,0,0,0,9.158,4.829,75.926,75.926,0,0,0,14.46,3.989c4.154.763,7.091,1.041,7.214,1.052a.8.8,0,0,1,.73.793l.823,75.27a.806.806,0,0,1-.249.591A.793.793,0,0,1,41.339,96.9ZM1.689,4.5,3.345,78.441a80.171,80.171,0,0,0,11.563,8.69,55.718,55.718,0,0,0,15.368,6.256,70.546,70.546,0,0,0,10.25,1.834l-.805-73.669c-2.86-.322-12.858-1.642-21.4-5.074A45.632,45.632,0,0,1,7.064,10.185,24.6,24.6,0,0,1,1.689,4.5Z" transform="translate(0 23.931)"/>
    <path id="Shape-5" data-name="Shape" d="M36.329,0l-.3,26.777L.682,28.35,0,1.162Z" transform="translate(145.144 0.804)" fill="#fff"/>
    <path id="Shape-6" data-name="Shape" d="M1.52,29.959H1.484a.8.8,0,0,1-.8-.785L0,1.987a.807.807,0,0,1,.776-.824L37.105,0h.006a.824.824,0,0,1,.582.229.814.814,0,0,1,.241.585l-.3,26.777a.8.8,0,0,1-.766.8Zm34.8-28.324L1.625,2.745l.641,25.568,33.773-1.5Z" transform="translate(144.256 0)"/>
    <path id="Shape-7" data-name="Shape" d="M20.733,0l-.972,33.556L6.2,30.275.017,12.48S-.5,10.362,4.143,6.488C10.64,1.053,20.733,0,20.733,0" transform="translate(94.13 24.591)" fill="#fff"/>
    <path id="Shape-8" data-name="Shape" d="M20.556,35.168a.806.806,0,0,1-.189-.023L6.8,31.864a.8.8,0,0,1-.57-.518L.053,13.552A3.362,3.362,0,0,1,.4,11.42,14.243,14.243,0,0,1,4.424,6.675c6.618-5.538,16.6-6.626,17.02-6.67A.735.735,0,0,1,21.533,0a.8.8,0,0,1,.8.83l-.972,33.556a.805.805,0,0,1-.8.782ZM20.7,1.733a41.835,41.835,0,0,0-6.678,1.638A26.441,26.441,0,0,0,5.452,7.913C1.409,11.287,1.6,13.119,1.6,13.137L7.6,30.4,19.78,33.347Z" transform="translate(93.189 23.785)"/>
    <path id="Shape-9" data-name="Shape" d="M31.79,14.151l-.348,41.618s-10.69-.387-18.855-3.523A28.655,28.655,0,0,1,0,42.392L.121,0A20.861,20.861,0,0,0,10.69,9.9c7.843,3.426,21.1,4.249,21.1,4.249" transform="translate(94.767 36.515)" fill="#fff"/>
    <path id="Shape-10" data-name="Shape" d="M32.245,57.376h-.029c-.441-.016-10.9-.42-19.113-3.575A29.171,29.171,0,0,1,.133,43.638.815.815,0,0,1,0,43.193L.121.8A.806.806,0,0,1,.766.015.827.827,0,0,1,.922,0a.8.8,0,0,1,.74.49,16.856,16.856,0,0,0,2.3,3.549A20.977,20.977,0,0,0,7.095,7.13a21.009,21.009,0,0,0,4.718,2.837c7.629,3.332,20.7,4.176,20.83,4.184a.8.8,0,0,1,.754.81l-.348,41.617a.808.808,0,0,1-.247.575A.8.8,0,0,1,32.245,57.376ZM1.718,3.768,1.607,42.944A28.216,28.216,0,0,0,13.676,52.3a51.938,51.938,0,0,0,10.389,2.608c3.257.513,6.025.733,7.385.818l.334-40.02c-3.1-.242-13.755-1.266-20.612-4.26A22.349,22.349,0,0,1,1.718,3.768Z" transform="translate(93.814 35.712)"/>
    <path id="Shape-11" data-name="Shape" d="M3.913,8.306l-.1,0H3.807A3.789,3.789,0,0,1,1.049,6.989,4.259,4.259,0,0,1,0,4.039,4.021,4.021,0,0,1,3.922,0l.121,0A3.788,3.788,0,0,1,6.8,1.315a4.265,4.265,0,0,1,1.048,2.95A4.256,4.256,0,0,1,6.65,7.13,3.806,3.806,0,0,1,3.913,8.306Zm.023-6.7a2.215,2.215,0,0,0-1.619.721,2.657,2.657,0,0,0-.709,1.755,2.647,2.647,0,0,0,.646,1.84,2.2,2.2,0,0,0,1.6.77H3.92a2.206,2.206,0,0,0,1.613-.722A2.658,2.658,0,0,0,6.241,4.22,2.658,2.658,0,0,0,5.6,2.381,2.2,2.2,0,0,0,4,1.61Z" transform="translate(146.352 5.846)"/>
    <path id="Shape-12" data-name="Shape" d="M3.913,8.3H3.808A3.8,3.8,0,0,1,1.05,6.982,4.244,4.244,0,0,1,0,4.042,4.277,4.277,0,0,1,1.185,1.179,3.777,3.777,0,0,1,3.917,0l.124,0A3.8,3.8,0,0,1,6.8,1.314,4.244,4.244,0,0,1,7.847,4.256,4.254,4.254,0,0,1,6.65,7.12,3.807,3.807,0,0,1,3.913,8.3ZM3.9,1.61a2.416,2.416,0,0,0-2.29,2.477,2.635,2.635,0,0,0,.646,1.829,2.206,2.206,0,0,0,1.6.768l.1,0a2.161,2.161,0,0,0,1.6-.727,2.69,2.69,0,0,0,.695-1.75A2.642,2.642,0,0,0,5.6,2.382,2.209,2.209,0,0,0,4,1.612Z" transform="translate(146.972 16.557)"/>
    <path id="Shape-13" data-name="Shape" d="M.8,2.518A.805.805,0,0,1,.76.909L17.36,0a.813.813,0,0,1,.847.76.8.8,0,0,1-.758.847l-16.6.908H.8" transform="translate(162.956 6.815)"/>
    <path id="Shape-14" data-name="Shape" d="M.8,2.53A.805.805,0,0,1,.76.921L17.36,0a.816.816,0,0,1,.847.759.806.806,0,0,1-.758.849l-16.6.92H.8" transform="translate(162.956 17.262)"/>
    <path id="Shape-15" data-name="Shape" d="M.8,2.53A.805.805,0,0,1,.76.921L17.359,0a.805.805,0,0,1,.089,1.608l-16.6.92H.8" transform="translate(163.113 10.979)"/>
    <path id="Shape-16" data-name="Shape" d="M.8,2.529A.805.805,0,0,1,.76.92L17.358,0a.815.815,0,0,1,.847.76.8.8,0,0,1-.757.847l-16.6.92H.8" transform="translate(163.114 21.438)"/>
    <path id="Shape-17" data-name="Shape" d="M.8,15.01a.805.805,0,0,1-.312-1.547C13.578,7.958,43.62.173,62.82,0h.007a.805.805,0,0,1,.007,1.61c-19,.172-48.756,7.884-61.72,13.337a.808.808,0,0,1-.31.063" transform="translate(13.6 17.189)"/>
    <path id="Shape-18" data-name="Shape" d="M.8,9.176A.805.805,0,0,1,.542,7.61C12.575,3.455,25.244,1.74,37.5.08l.54-.073a.8.8,0,0,1,.215,1.6l-.541.074C24.977,3.4,12.948,5.029,1.066,9.133A.826.826,0,0,1,.8,9.176" transform="translate(30.99 32.15)"/>
    <path id="Shape-19" data-name="Shape" d="M.8,5.086A.805.805,0,0,1,.542,3.52C5.919,1.661,18.538.074,19.073.008a.8.8,0,0,1,.9.7.8.8,0,0,1-.7.9c-.129.016-12.988,1.633-18.206,3.437A.826.826,0,0,1,.8,5.086" transform="translate(45.966 47.825)"/>
    <path id="Shape-20" data-name="Shape" d="M.8,5.739A.8.8,0,0,1,.631,4.148C.783,4.114,15.943.788,23.346.006a.8.8,0,0,1,.883.715.8.8,0,0,1-.714.885C16.2,2.38,1.128,5.687.975,5.72A.771.771,0,0,1,.8,5.739" transform="translate(43.655 60.633)"/>
    <path id="Shape-21" data-name="Shape" d="M1.474,20.3H1.45a.8.8,0,0,1-.779-.828C.758,16.41.549,13.279.348,10.253.142,7.164-.069,3.972.022.783A.791.791,0,0,1,.846,0a.8.8,0,0,1,.78.828c-.088,3.111.122,6.266.325,9.316s.414,6.233.325,9.374a.8.8,0,0,1-.8.782" transform="translate(100.381 55.246)"/>
    <path id="Shape-22" data-name="Shape" d="M1.427,21.245H1.4a.8.8,0,0,1-.779-.828c.024-.872.056-1.77.088-2.686C.9,12.24,1.124,6.014.019.978A.8.8,0,1,1,1.588.633c1.147,5.234.925,11.566.729,17.154-.033.913-.063,1.807-.088,2.675a.8.8,0,0,1-.8.782" transform="translate(108.41 55.658)"/>
    <path id="Shape-23" data-name="Shape" d="M.8,18.631H.779A.8.8,0,0,1,0,17.8c.08-2.834.1-5.716.123-8.5S.166,3.627.247.783A.769.769,0,0,1,1.073,0a.8.8,0,0,1,.779.828c-.08,2.827-.1,5.7-.122,8.482-.021,2.8-.043,5.687-.124,8.538a.8.8,0,0,1-.8.782" transform="translate(118.062 59.423)"/>
    <path id="Shape-24" data-name="Shape" d="M14.556,5.733a.784.784,0,0,1-.28-.051c-.768-.287-1.671-.661-2.653-1.068C8.195,3.192,3.5,1.243.932,1.666A.8.8,0,0,1,.673.078c3.015-.5,7.756,1.468,11.565,3.048.961.4,1.848.765,2.6,1.047a.805.805,0,0,1-.28,1.559" transform="translate(102.692 56.027)"/>
    <path id="Shape-25" data-name="Shape" d="M14.98,5.823a.806.806,0,0,1-.469-.151C12.426,4.169,9.3,3.567,6.283,2.984A37.313,37.313,0,0,1,.524,1.561.806.806,0,0,1,1.084.05,35.442,35.442,0,0,0,6.586,1.4c3.192.615,6.491,1.252,8.864,2.961a.805.805,0,0,1-.47,1.459" transform="translate(100.752 62.219)"/>
    <path id="Shape-26" data-name="Shape" d="M14.972,6.1a.767.767,0,0,1-.278-.051A33.827,33.827,0,0,0,9.763,4.881C6.026,4.169,2.162,3.434.217,1.356A.8.8,0,1,1,1.389.254C2.974,1.95,6.741,2.667,10.063,3.3a34.663,34.663,0,0,1,5.187,1.242.805.805,0,0,1-.278,1.56" transform="translate(101.577 69.132)"/>
    <path id="Shape-27" data-name="Shape" d="M0,5.825A5.832,5.832,0,0,1,5.829,0a5.84,5.84,0,0,1,5.487,6.149A5.832,5.832,0,0,1,5.49,11.974,5.84,5.84,0,0,1,0,5.825" transform="translate(23.162 50.228)"/>
    <path id="Shape-28" data-name="Shape" d="M6.44,13.587c-.058,0-.112,0-.17,0A6.654,6.654,0,0,1,0,6.609a6.979,6.979,0,0,1,1.94-4.678A6.213,6.213,0,0,1,6.432,0c.074,0,.149,0,.223,0a6.657,6.657,0,0,1,6.267,6.978,6.93,6.93,0,0,1-1.973,4.682A6.294,6.294,0,0,1,6.44,13.587ZM6.512,1.612a4.743,4.743,0,0,0-3.4,1.464,5.311,5.311,0,0,0-1.5,3.578,5.046,5.046,0,0,0,4.71,5.322l.162,0a5.055,5.055,0,0,0,4.837-5.044A5.047,5.047,0,0,0,6.607,1.613h-.1Z" transform="translate(22.359 49.421)" fill="#fff"/>
    <path id="Shape-29" data-name="Shape" d="M67.272,74.979a284.137,284.137,0,0,0-34.778-6.488C13.921,66.288.471,66.106.471,66.106L0,0S43.349,2.227,60.861,4.624C71.209,6.053,93.326,11.633,100.1,15.87c8.384,5.242,8.445,9.369,8.445,9.369L86.563,66.675Z" transform="translate(350.994 2.281)" fill="#fff"/>
    <path id="Shape-30" data-name="Shape" d="M68.075,76.588a.836.836,0,0,1-.205-.025c-.035-.01-4.161-1.094-10.532-2.437-5.787-1.22-14.672-2.909-24.135-4.032C15.271,67.968,1.834,67.725,1.271,67.715H1.263a.807.807,0,0,1-.792-.8L0,.81A.805.805,0,0,1,.248.223.843.843,0,0,1,.83,0H.844L.909,0C5.4.239,45.219,2.365,61.773,4.632c10.839,1.495,32.871,7.178,39.554,11.359,8.665,5.417,8.82,9.854,8.823,10.04a.8.8,0,0,1-.094.39L88.075,67.857a.816.816,0,0,1-.391.362l-19.291,8.3A.8.8,0,0,1,68.075,76.588ZM1.612,1.652h0l.459,64.47c3.368.084,15.582.507,31.321,2.374,7.206.855,14.912,2.123,22.9,3.769,6.226,1.282,10.541,2.368,11.716,2.671l18.778-8.084,21.729-40.963a7.491,7.491,0,0,0-1.5-2.952,24.276,24.276,0,0,0-6.537-5.58C93.957,13.279,72.261,7.7,61.556,6.226c-15.78-2.16-52.7-4.189-59.943-4.574Z" transform="translate(350.19 1.477)"/>
    <path id="Shape-31" data-name="Shape" d="M57.754,0l.229,73.805S49.649,83.55,29.625,89.118C7.341,95.316,0,94.723,0,94.723L.128,22.189a248.117,248.117,0,0,0,30.342-6.5C51.029,9.66,57.754,0,57.754,0" transform="translate(401.766 27.193)" fill="#fff"/>
    <path id="Shape-32" data-name="Shape" d="M1.442,96.351c-.191,0-.468,0-.7-.019h0a.81.81,0,0,1-.739-.8L.129,22.993a.808.808,0,0,1,.69-.8,249.5,249.5,0,0,0,30.229-6.476A78.09,78.09,0,0,0,43.7,10.851,55.314,55.314,0,0,0,51.97,5.863,28.271,28.271,0,0,0,57.9.344.8.8,0,0,1,59.361.8l.23,73.806a.809.809,0,0,1-.194.526c-.346.405-8.715,9.992-28.755,15.564A199.991,199.991,0,0,1,9.9,95.473,54.936,54.936,0,0,1,1.442,96.351ZM57.761,2.983h0A41.262,41.262,0,0,1,49.386,9.57a73.874,73.874,0,0,1-17.887,7.7C26.053,18.858,19.832,20.35,13.01,21.7c-5.446,1.078-9.7,1.75-11.276,1.988L1.609,94.735a58.675,58.675,0,0,0,8.432-.927,199.617,199.617,0,0,0,20.174-4.659,80.914,80.914,0,0,0,11.694-4.216A66.282,66.282,0,0,0,50.3,80.4a41.9,41.9,0,0,0,7.687-6.1L57.761,2.983Z" transform="translate(400.962 26.388)"/>
    <path id="Shape-33" data-name="Shape" d="M62.536,9.987C62.255,20,62.255,20,61.975,30.009,30.386,29.863,31.589,28.411,0,28.266.395,18.351.342,9.9.735,0c31.476.048,30.325,9.938,61.8,9.987" transform="translate(210.192 2.959)" fill="#fff"/>
    <path id="Shape-34" data-name="Shape" d="M62.778,31.62h0c-15.816-.073-23.548-.479-31.026-.873-7.459-.392-15.172-.8-30.949-.871a.806.806,0,0,1-.8-.838C.2,24.171.281,19.58.365,15.14l0-.236C.452,10.413.538,5.771.736.774A.8.8,0,0,1,1.538,0C17.406.025,25.175,2.571,32.689,5.034c7.39,2.423,15.031,4.929,30.652,4.953a.8.8,0,0,1,.8.828l-.562,20.022A.8.8,0,0,1,62.778,31.62ZM2.311,1.614c-.174,4.614-.256,8.989-.335,13.221l0,.1c-.074,4.036-.158,8.609-.336,13.337,15.267.083,22.856.482,30.2.868s14.9.785,30.163.867l.517-18.411c-15.312-.11-22.943-2.611-30.323-5.03l-.005,0C24.916,4.181,17.4,1.718,2.311,1.614Z" transform="translate(209.405 2.153)"/>
    <path id="Shape-35" data-name="Shape" d="M40.251,10.753c-5.358-3.329-9.19.315-17.246.351S13.91,4.41,9.076,1.952A16.074,16.074,0,0,0,.368.052L0,17.362l50.275,2.385a48.253,48.253,0,0,0-10.024-8.994" transform="translate(217.462 8.548)" fill="#ffd2e1"/>
    <path id="Shape-36" data-name="Shape" d="M.8,17.058H.768A.806.806,0,0,1,0,16.218L.679.771a.8.8,0,1,1,1.6.071L1.606,16.289a.8.8,0,0,1-.8.77" transform="translate(222.302 9.258)"/>
    <path id="Shape-37" data-name="Shape" d="M.8,17.056H.768A.805.805,0,0,1,0,16.216L.68.769A.843.843,0,0,1,1.518,0,.8.8,0,0,1,2.284.84L1.6,16.286a.8.8,0,0,1-.8.77" transform="translate(239.852 10.761)"/>
    <path id="Shape-38" data-name="Shape" d="M.8,13.823H.764A.8.8,0,0,1,0,12.979L.589.765A.832.832,0,0,1,1.431,0a.8.8,0,0,1,.762.843L1.6,13.057a.8.8,0,0,1-.8.766" transform="translate(258.617 14.454)"/>
    <path id="Shape-39" data-name="Shape" d="M58.175,11.755a.83.83,0,0,1-.251-.04C42.849,6.747,17.746,2.87.744,1.608A.8.8,0,0,1,.862,0c17.1,1.269,42.365,5.174,57.564,10.182a.805.805,0,0,1-.251,1.57" transform="translate(386.994 17.43)"/>
    <path id="Shape-40" data-name="Shape" d="M70.887,9.455a.812.812,0,0,1-.169-.018C57.139,6.537,23.151,0,.873,1.972A.805.805,0,0,1,.731.368C23.225-1.618,57.4,4.946,71.054,7.864a.805.805,0,0,1-.167,1.592" transform="translate(362.094 30.672)"/>
    <path id="Shape-41" data-name="Shape" d="M38.863,4.007A.79.79,0,0,1,38.732,4C26.2,1.943,15.316,1.8,2.711,1.635L.793,1.61A.805.805,0,0,1,.8,0H.814L2.732.025C15.4.191,26.344.334,38.991,2.408a.8.8,0,0,1-.128,1.6" transform="translate(342.538 44.377)"/>
    <path id="Shape-42" data-name="Shape" d="M37.192,5.157a.754.754,0,0,1-.115-.008c-1.5-.214-2.966-.427-4.41-.639C22.57,3.032,13.849,1.756.793,1.61A.805.805,0,0,1,.8,0h.01A218.045,218.045,0,0,1,32.9,2.916c1.443.211,2.907.425,4.405.639a.8.8,0,0,1-.112,1.6" transform="translate(341.101 57.547)"/>
  </g>
  <g id="Group-2" data-name="Group" transform="translate(0 106.115)">
    <path id="Shape-43" data-name="Shape" d="M0,19.386l33.4.41,9.925,6.092L41.856,1.822.016,0Z" fill="#ffd2e1"/>
    <path id="Shape-44" data-name="Shape" d="M28.707,2.367h-.023L.775,1.605A.8.8,0,0,1,0,.782.81.81,0,0,1,.818,0L28.729.761a.8.8,0,0,1-.022,1.606" transform="translate(6.136 5.618)"/>
    <path id="Shape-45" data-name="Shape" d="M0,.423l27.91.761" transform="translate(6.419 11.227)" fill="#fff"/>
    <path id="Shape-46" data-name="Shape" d="M28.707,2.366h-.023L.776,1.606A.8.8,0,0,1,0,.781.79.79,0,0,1,.819,0l27.91.76a.8.8,0,0,1-.022,1.606" transform="translate(5.622 10.847)"/>
  </g>
  <g id="Group-3" data-name="Group" transform="translate(281.158 0)">
    <path id="Shape-47" data-name="Shape" d="M.447,9.819C2.112,3.151,7.942-1.121,13.465.259s8.655,7.927,6.991,14.583S12.961,25.781,7.437,24.4-1.218,16.475.447,9.819" transform="translate(160.961 76.187)" fill="#ffbe00"/>
    <path id="Shape-48" data-name="Shape" d="M7.774,20.327a7.066,7.066,0,0,1-1.727-.215C1.546,18.976-1,13.593.371,8.11A11.432,11.432,0,0,1,4.449,1.722,8.027,8.027,0,0,1,9.285,0,7.087,7.087,0,0,1,11.02.216a7.563,7.563,0,0,1,4.617,3.553,11.253,11.253,0,0,1,1.058,8.448A11.44,11.44,0,0,1,12.617,18.6,8.039,8.039,0,0,1,7.774,20.327ZM1.927,8.5h0c-1.157,4.622.867,9.13,4.511,10.048a5.417,5.417,0,0,0,1.331.166,6.457,6.457,0,0,0,3.882-1.4,9.828,9.828,0,0,0,3.488-5.489A9.637,9.637,0,0,0,14.261,4.6a5.886,5.886,0,0,0-3.63-2.821A5.5,5.5,0,0,0,9.3,1.613a6.456,6.456,0,0,0-3.881,1.4A9.794,9.794,0,0,0,1.929,8.5Z" transform="translate(162.879 78.353)"/>
    <path id="Shape-49" data-name="Shape" d="M2.693,13.673C-.883,8.918-.9,3.218,2.654.943s9.329-.266,12.905,4.49,3.592,10.456.039,12.743-9.329.266-12.9-4.5" transform="translate(139.775 121.441)" fill="#ffbe00"/>
    <path id="Shape-50" data-name="Shape" d="M10.078,16.081c-2.738,0-5.738-1.73-7.827-4.516A9.845,9.845,0,0,1,.1,4.222,4.963,4.963,0,0,1,2.287.806,5.326,5.326,0,0,1,5.2,0c2.741,0,5.742,1.728,7.83,4.51a9.858,9.858,0,0,1,2.145,7.344,4.959,4.959,0,0,1-2.183,3.415A5.3,5.3,0,0,1,10.078,16.081ZM5.15,1.627a3.658,3.658,0,0,0-2,.537A3.382,3.382,0,0,0,1.683,4.507,8.236,8.236,0,0,0,3.531,10.6,10.636,10.636,0,0,0,6.7,13.426a7.013,7.013,0,0,0,3.427,1.027,3.644,3.644,0,0,0,2-.541,3.384,3.384,0,0,0,1.469-2.344,8.246,8.246,0,0,0-1.848-6.091A10.631,10.631,0,0,0,8.58,2.653,7.027,7.027,0,0,0,5.15,1.627Z" transform="translate(141.262 122.957)"/>
    <path id="Shape-51" data-name="Shape" d="M1.779,9.04C-.583,5.893-.595,2.118,1.752.617S7.914.448,10.275,3.582s2.374,6.91.028,8.423-6.163.169-8.523-2.965" transform="translate(0 0)" fill="#ffbe00"/>
    <path id="Shape-52" data-name="Shape" d="M6.932,11.164A7.163,7.163,0,0,1,1.54,8.082,6.8,6.8,0,0,1,.073,3.015,3.542,3.542,0,0,1,1.635.578,3.745,3.745,0,0,1,3.7,0,7.166,7.166,0,0,1,9.091,3.082,6.8,6.8,0,0,1,10.56,8.148,3.554,3.554,0,0,1,9,10.586,3.756,3.756,0,0,1,6.932,11.164ZM3.69,1.612a2.161,2.161,0,0,0-1.19.321A2,2,0,0,0,1.65,3.3a5.187,5.187,0,0,0,1.17,3.813A6.844,6.844,0,0,0,4.811,8.9a4.325,4.325,0,0,0,2.13.652,2.163,2.163,0,0,0,1.191-.322,2.009,2.009,0,0,0,.849-1.368A5.184,5.184,0,0,0,7.81,4.05,6.832,6.832,0,0,0,5.82,2.264,4.328,4.328,0,0,0,3.69,1.612Z" transform="translate(0.712 0.729)"/>
    <path id="Shape-53" data-name="Shape" d="M11.5,12.238c-3.882,2.9-8.642,3.038-10.629.278S.417,5.17,4.3,2.266,12.943-.772,14.93,1.987s.452,7.346-3.431,10.25" transform="translate(52.291 70.767)" fill="#ffbe00"/>
    <path id="Shape-54" data-name="Shape" d="M4.633,12.488a5.856,5.856,0,0,1-.906-.068,4.31,4.31,0,0,1-2.94-1.7C-.96,8.3.293,4.433,3.641,1.921A9.123,9.123,0,0,1,8.931,0a6.084,6.084,0,0,1,.9.065,4.319,4.319,0,0,1,2.942,1.7c1.748,2.422.493,6.288-2.856,8.8A9.11,9.11,0,0,1,4.633,12.488ZM8.909,1.607A7.477,7.477,0,0,0,4.6,3.209C2.051,5.125.9,8.132,2.086,9.777A2.792,2.792,0,0,0,3.967,10.83a4.586,4.586,0,0,0,.678.049,7.48,7.48,0,0,0,4.31-1.6c2.552-1.915,3.7-4.923,2.516-6.568A2.794,2.794,0,0,0,9.589,1.657,4.642,4.642,0,0,0,8.909,1.607Z" transform="translate(53.411 71.776)"/>
  </g>
</svg>
