<svg id="Сharacter" xmlns="http://www.w3.org/2000/svg" xmlns:xlink="http://www.w3.org/1999/xlink" width="235.533" height="342.59" viewBox="0 0 235.533 342.59">
  <defs>
    <clipPath id="clip-path">
      <path id="Shape" d="M0,0H43.515V48.224H0Z" fill="none"/>
    </clipPath>
  </defs>
  <g id="Сharacter-2" data-name="Сharacter" transform="translate(0 0)">
    <g id="Group" transform="translate(108.773 195.911)">
      <path id="Shape-2" data-name="Shape" d="M.009,12.662C.419,4.813,14.808-.825,32.141.1s31.054,8.02,30.641,15.882S47.984,29.47,30.65,28.545-.4,20.524.009,12.662" transform="translate(0 0)"/>
      <path id="Shape-3" data-name="Shape" d="M.8,61.438l-.063,0A.8.8,0,0,1,0,60.574L4.614.739A.832.832,0,0,1,5.473,0a.8.8,0,0,1,.736.862L1.6,60.7a.8.8,0,0,1-.8.741" transform="translate(27.295 30.125)"/>
      <path id="Shape-4" data-name="Shape" d="M.006,8.526C.284,3.24,9.954-.544,21.607.064S42.479,5.464,42.2,10.75s-9.945,9.058-21.6,8.45S-.27,13.8.006,8.526" transform="translate(7.041 86.021)"/>
    </g>
    <g id="Group-2" data-name="Group">
      <path id="Shape-5" data-name="Shape" d="M5.475,35.069c-.046.157-7.51,12.737-4.934,13.22C9.915,50.04,19.356,51.453,28.811,52.7c.911.121,2.512.567,2.738-.314C35.768,35.733,42.055,7.12,41.79,6.806,38.227,2.6,35.631-1.5,31.88.54,19.461,7.265,9.153,22.815,5.475,35.069" transform="translate(55.224 65.042)" fill="#fff"/>
      <path id="Shape-6" data-name="Shape" d="M31.333,54.525a8.3,8.3,0,0,1-1.371-.151l-.088-.014c-.131-.022-.255-.042-.367-.057C18.85,52.9,9.589,51.456,1.195,49.888A1.376,1.376,0,0,1,.177,49.1C-.305,48.06-.156,45.63,5.32,35.948l.113-.2.1-.17a58.691,58.691,0,0,1,3.939-9.616,72.691,72.691,0,0,1,6.044-9.822C20.579,9.2,26.384,3.846,32.3.643A4.89,4.89,0,0,1,34.63,0c2.728,0,4.941,2.692,7.283,5.542.371.452.832,1.013,1.291,1.555.325.386.474.563-3.268,17.356C37.54,35.207,35,46.024,33.129,53.389,32.933,54.153,32.345,54.525,31.333,54.525ZM34.627,1.618h0a3.231,3.231,0,0,0-1.561.436C20.681,8.76,10.6,24.262,7.045,36.108a2.945,2.945,0,0,1-.327.629C1.662,45.678,1.529,47.873,1.609,48.332c8.326,1.553,17.521,2.985,28.109,4.378.157.021.332.05.513.081a7.97,7.97,0,0,0,1.135.136.993.993,0,0,0,.228-.021c4.083-16.124,9.766-41.988,10.179-45.015-.344-.409-.683-.82-1.01-1.218l-.089-.108c-2.527-3.077-4.2-4.945-6.047-4.945Z" transform="translate(54.423 64.232)"/>
      <path id="Shape-7" data-name="Shape" d="M6.247,141.421c7.3-.542,18.937,2.415,18.937,2.415s5.327-21.889,7.474-39.526a165.541,165.541,0,0,0,.1-34.844L74.137,48.471S135.059,27.064,115.37,5.187,3.623,37.073.737,46.321c-2.931,9.394,3.7,76.025,5.51,95.1" transform="translate(17.148 144.291)" fill="#fff"/>
      <path id="Shape-8" data-name="Shape" d="M25.994,145.444a.778.778,0,0,1-.2-.025h0c-.4-.1-9.88-2.454-16.83-2.454-.657,0-1.279.021-1.849.063h-.03a.805.805,0,0,1-.829-.726l-.4-4.176C2.194,99.814-1.7,54.821.78,46.887,3.136,39.337,53.637,9.054,87.292,1.7A65.689,65.689,0,0,1,101.06,0a28.648,28.648,0,0,1,9.323,1.365,15.1,15.1,0,0,1,6.392,4.091c3.6,4,4.855,8.287,3.718,12.734a18.573,18.573,0,0,1-3.146,6.312,36.865,36.865,0,0,1-5.559,5.881,84.41,84.41,0,0,1-14.967,10,165.918,165.918,0,0,1-21.608,9.651l-40.791,20.7a168.464,168.464,0,0,1-.157,34.476c-2.135,17.54-7.439,39.41-7.491,39.619a.805.805,0,0,1-.78.613Zm-17-4.088a59.831,59.831,0,0,1,9.572.935c3.013.5,5.576,1.08,6.835,1.378.88-3.71,5.367-23.009,7.271-38.652a166.191,166.191,0,0,0,.1-34.651.8.8,0,0,1,.434-.811L74.582,48.56l.049-.018A170.825,170.825,0,0,0,95.845,39.03,85.077,85.077,0,0,0,110.5,29.359a35.825,35.825,0,0,0,5.414-5.611,17.152,17.152,0,0,0,3.027-5.956c1-3.893-.134-7.683-3.355-11.263a13.639,13.639,0,0,0-5.85-3.7A27,27,0,0,0,101.1,1.594,64.245,64.245,0,0,0,87.636,3.265c-34.151,7.467-83.355,37.8-85.322,44.1-2.7,8.643,3,68.189,5.144,90.605v0l.325,3.408C8.179,141.364,8.587,141.356,8.994,141.356Z" transform="translate(16.338 143.486)"/>
      <path id="Shape-9" data-name="Shape" d="M6.247,144.579c7.3-.543,18.937,2.415,18.937,2.415s5.327-21.889,7.474-39.528a165.4,165.4,0,0,0,.1-34.843l41.384-21s25.78-24.81,6.09-46.675S3.624,40.218.738,49.466c-2.932,9.393,3.7,76.037,5.509,95.113" transform="translate(64.964 141.11)" fill="#fff"/>
      <path id="Shape-10" data-name="Shape" d="M25.993,148.6a.763.763,0,0,1-.2-.026l-.008,0c-.269-.067-2.719-.672-5.919-1.258a63.709,63.709,0,0,0-10.9-1.2c-.658,0-1.281.021-1.851.064H7.066a.815.815,0,0,1-.81-.727l-.4-4.19C2.193,102.956-1.7,57.962.78,50.031,3.238,42.158,39.052,5.983,63.27.691A28.077,28.077,0,0,1,69.226,0a17.853,17.853,0,0,1,6.951,1.307A15.269,15.269,0,0,1,81.632,5.22a30.669,30.669,0,0,1,5.483,8.413,25.81,25.81,0,0,1,2.024,8.378A32.606,32.606,0,0,1,86.159,37.34a49.337,49.337,0,0,1-3.332,6.288,57.881,57.881,0,0,1-3.445,4.929A46.843,46.843,0,0,1,75.5,53.011a.789.789,0,0,1-.194.136L34.421,73.893a168.388,168.388,0,0,1-.157,34.475c-2.128,17.489-7.438,39.407-7.491,39.621a.805.805,0,0,1-.78.613ZM9,144.513c6.184,0,14.118,1.771,16.4,2.313.88-3.71,5.367-23.009,7.271-38.653a165.809,165.809,0,0,0,.1-34.65.8.8,0,0,1,.434-.811L74.473,51.773a49.535,49.535,0,0,0,4.018-4.648,50.468,50.468,0,0,0,6.169-10.2c5.124-11.528,3.7-21.834-4.219-30.632a13.63,13.63,0,0,0-4.922-3.51,16.4,16.4,0,0,0-6.324-1.172,26.418,26.418,0,0,0-5.58.648C38.764,7.69,4.341,44.012,2.314,50.511c-2.7,8.634,2.995,68.147,5.137,90.551l.005.053.326,3.424C8.179,144.522,8.588,144.513,9,144.513Z" transform="translate(64.155 140.305)"/>
      <path id="Shape-11" data-name="Shape" d="M25.943.483l-2.819,22L0,22.879,1.96,0Z" transform="translate(19.416 282.791)"/>
      <path id="Shape-12" data-name="Shape" d="M25.943.482,23.124,22.491,0,22.891,1.96,0Z" transform="translate(67.232 282.756)"/>
      <g id="Group-3" data-name="Group" transform="translate(0 294.366)">
        <path id="Shape-13" data-name="Shape" d="M0,0H43.515V48.224H0Z" transform="translate(0 0)" fill="none"/>
        <g id="Group-4" data-name="Group" transform="translate(0 0)" clip-path="url(#clip-path)">
          <path id="Shape-14" data-name="Shape" d="M32.052,8.02S31.681-.155,26.65,0c-5.236.17-7.335,5.772-8.7,9.08-3.838,9.331-6.3,16.432-13.111,23.494C-3.636,41.366.385,46.908,6.5,48.055s6.689-4.008,10.251-3.96a11.016,11.016,0,0,0,5.682-.954c2.205-1.184,1.858-3.634,4.013-4.564,1.322-.567,5.252-.109,5.743-.736,1.012-1.317,1.256-2.354,2.356-3.779,1.311-1.7,6.812-1.244,7.861-3.1,1.366-2.415,1.176-26.452.961-26.706C42.919,3.746,32.052,8.02,32.052,8.02" transform="translate(0 0)" fill="#ffbe00"/>
        </g>
      </g>
      <path id="Shape-15" data-name="Shape" d="M32.051,8.019S31.682-.165,26.651,0c-5.237.157-7.336,5.759-8.7,9.067-3.838,9.334-6.3,16.444-13.111,23.508C-3.635,41.365.385,46.895,6.5,48.054s6.689-4.02,10.251-3.972a10.988,10.988,0,0,0,5.682-.941c2.205-1.184,1.858-3.635,4.013-4.564,1.322-.567,5.252-.109,5.743-.75,1.012-1.315,1.256-2.342,2.356-3.767,1.311-1.7,6.812-1.256,7.863-3.1,1.365-2.415,1.176-26.464.96-26.706-.446-.507-11.313,3.767-11.313,3.767" transform="translate(47.816 294.342)" fill="#ffbe00"/>
      <path id="Shape-16" data-name="Shape" d="M.8,20.174a.8.8,0,0,1-.318-1.541C12.928,13.3,33.871.254,34.082.122a.8.8,0,0,1,.85,1.363c-.211.13-21.26,13.242-33.812,18.624a.82.82,0,0,1-.316.065" transform="translate(8.451 317.302)" fill="#fff"/>
      <path id="Shape-17" data-name="Shape" d="M.8,20.174a.8.8,0,0,1-.318-1.541C12.928,13.3,33.871.253,34.082.121a.8.8,0,0,1,.85,1.363c-.211.13-21.26,13.241-33.812,18.624a.82.82,0,0,1-.316.065" transform="translate(56.267 317.279)" fill="#fff"/>
      <path id="Shape-18" data-name="Shape" d="M1.166,13.082c3.821,2.306,6.285-21.828.679-9.61C1.248,4.764.288,6,.188,7.432c-.134,1.908-.662,4.66.978,5.65" transform="translate(124.193 6.247)" fill="#fdfdfd"/>
      <path id="Shape-19" data-name="Shape" d="M9.554,5.746C28.776-9.84,30.139,10.165,38.055,19.92s.461,20.718,3.154,24.859C31.549,44.018.919,46.107.919,46.107s-6.6-23.9,15.548-31.825" transform="translate(98.931 6.17)"/>
      <path id="Shape-20" data-name="Shape" d="M17.01,31.1c2.316-4.733,2.7-7.534,3.481-11.216,1.7-8.017,3.785-16.552,3.785-16.552L34.161,0c1.487,13.932-.2,13.437,6.345,30.255,1.775,4.564,21.688,5.493,33.762,18.387s14.417,31.8,14.531,33.2c2.57,31.354-73.734,13.643-73.734,13.643L0,40.252S14.7,35.821,17.01,31.1" transform="translate(88.334 26.852)" fill="#fff"/>
      <path id="Shape-21" data-name="Shape" d="M57.015,102.111c-4.409,0-9.253-.25-14.4-.743-4.156-.4-8.524-.956-12.983-1.658-7.783-1.225-13.341-2.5-13.949-2.638a.807.807,0,0,1-.593-.572L.029,41.266a.8.8,0,0,1,.543-.979c3.994-1.2,14.749-5.123,16.521-8.736a35.089,35.089,0,0,0,3.14-9.692l.276-1.337C22.056,13.236,23.93,5.47,24.29,3.987l.01-.041a.8.8,0,0,1,.524-.57L34.709.042A.776.776,0,0,1,34.963,0a.8.8,0,0,1,.8.718c.35,3.279.529,5.816.672,7.855l0,.026v0c.468,6.662.662,9.419,5.621,22.165.578,1.486,4.365,2.783,8.751,4.284h0l.005,0C58.2,37.581,68.3,41.041,75.657,48.9a50.011,50.011,0,0,1,7.7,11,65.769,65.769,0,0,1,4.466,10.893A63.508,63.508,0,0,1,90.4,82.583c.426,5.2-1.215,9.436-4.879,12.6C80.2,99.78,70.606,102.111,57.015,102.111ZM34.271,1.886h0l-8.515,2.87c-.348,1.439-2.165,8.982-3.676,16.1l-.274,1.326v0a36.44,36.44,0,0,1-3.27,10.072,9.255,9.255,0,0,1-3.092,3.173A33.592,33.592,0,0,1,10.511,38.2a77.777,77.777,0,0,1-8.729,3.391L16.516,95.612c1.563.345,7.253,1.561,14.838,2.691a178.267,178.267,0,0,0,25.862,2.154h0c13.1,0,22.265-2.184,27.254-6.49,3.3-2.848,4.715-6.529,4.328-11.253a68.969,68.969,0,0,0-6.93-22.126,47.935,47.935,0,0,0-7.386-10.592c-7.081-7.562-16.963-10.947-24.18-13.419l-.013,0c-5.349-1.83-8.882-3.039-9.732-5.222-5.049-12.976-5.247-15.8-5.727-22.637-.132-1.89-.282-4.033-.564-6.828Z" transform="translate(87.53 26.048)"/>
      <path id="Shape-22" data-name="Shape" d="M14.765,12.252C6.261,18.542,0,30.217,0,30.217L24.358,34.43l-2,15.2,5.367,11.892s4.532,42.715,5.8,42.606c1.024-.1,52.712-.845,52.712-.845l3.2-36.135L88.05,38.765l25.154-5.7S109.867,19.725,99.27,12.614,72.484-1.765,71.685.384,59.6,33.271,57.97,32.813c-.132-.036-20.071.8-20.071.8S36.29,6.795,34.016,5.08c-1.937-1.473-10.746.881-19.251,7.171" transform="translate(62.712 57.858)" fill="#ffd2e1"/>
      <path id="Shape-23" data-name="Shape" d="M3.506,4.482C.743,6.076-1.328,1.85,1.023.317A2.091,2.091,0,0,1,2.937.16" transform="translate(100.035 32.535)" fill="#fff"/>
      <path id="Shape-24" data-name="Shape" d="M3.106,6.443A3.058,3.058,0,0,1,.544,4.929,3.228,3.228,0,0,1,1.39.45,2.874,2.874,0,0,1,4.047.222a.8.8,0,0,1-.607,1.487A1.284,1.284,0,0,0,2.267,1.8a1.654,1.654,0,0,0-.355,2.294,1.379,1.379,0,0,0,2,.5.8.8,0,0,1,.8,1.391,3.2,3.2,0,0,1-1.607.46" transform="translate(99.229 31.729)"/>
      <path id="Shape-25" data-name="Shape" d="M.656,37.029c1.019,6.1,6.445,8.149,10.382,8.1,4.15-.036,9.388-2.68,9.792-9.067.47-7.425.479-23.676-.225-26.561s-3.155-6.157-6.855-8.379C8.816-1.846,1.134,1.534.775,5.869-.41,20.224-.061,32.743.656,37.029Z" transform="translate(101.782 8.91)" fill="#fff"/>
      <path id="Shape-26" data-name="Shape" d="M11.689,46.731a12.08,12.08,0,0,1-6.924-2.108,9.782,9.782,0,0,1-2.621-2.731A10.452,10.452,0,0,1,.666,37.959C-.024,33.843-.445,21.392.776,6.6c.17-2.063,1.76-4.056,4.252-5.33A11.5,11.5,0,0,1,10.235,0a9.155,9.155,0,0,1,4.73,1.233c3.654,2.194,6.421,5.6,7.222,8.876.748,3.072.7,19.639.245,26.8-.424,6.687-5.785,9.777-10.587,9.818ZM10.238,1.6A9.9,9.9,0,0,0,5.76,2.7C3.766,3.719,2.5,5.227,2.376,6.731c-1.209,14.653-.8,26.927-.128,30.963a8.692,8.692,0,0,0,1.457,3.639,8.26,8.26,0,0,0,2.48,2.279,11.048,11.048,0,0,0,5.531,1.513h.112c4.083-.035,8.641-2.651,9-8.313.487-7.687.453-23.633-.2-26.321-.7-2.879-3.188-5.9-6.488-7.88A7.544,7.544,0,0,0,10.238,1.6Z" transform="translate(100.981 8.113)"/>
      <path id="Shape-27" data-name="Shape" d="M2.112,6.6A2.06,2.06,0,0,1,.3,5.782C-.753,4.208,1.275,1.21,1.922.328a.8.8,0,0,1,1.3.949C2.162,2.719,1.377,4.509,1.633,4.892c0,0,.256.249,1.5-.053A.8.8,0,1,1,3.51,6.4a5.963,5.963,0,0,1-1.4.2" transform="translate(105.258 32.182)"/>
      <path id="Shape-28" data-name="Shape" d="M0,.857A.8.8,0,0,1,.738,0a.805.805,0,0,1,.756.833.807.807,0,0,1-.738.857A.8.8,0,0,1,0,.857" transform="translate(110.962 31.27)"/>
      <path id="Shape-29" data-name="Shape" d="M0,.845A.8.8,0,0,1,.738,0a.789.789,0,0,1,.756.833.806.806,0,0,1-.738.857A.809.809,0,0,1,0,.845" transform="translate(103.444 31.04)"/>
      <path id="Shape-30" data-name="Shape" d="M0,4.464C2.742,6.082,4.865,1.893,2.534.335A2.057,2.057,0,0,0,.622.154" transform="translate(121.153 33.579)" fill="#fff"/>
      <path id="Shape-31" data-name="Shape" d="M2.025,6.433a3.194,3.194,0,0,1-1.63-.476.8.8,0,1,1,.816-1.384,1.379,1.379,0,0,0,2.008-.485,1.636,1.636,0,0,0-.328-2.283A1.258,1.258,0,0,0,1.727,1.7a.8.8,0,0,1-.6-1.489A2.875,2.875,0,0,1,3.787.472,3.218,3.218,0,0,1,4.58,4.942,3.07,3.07,0,0,1,2.025,6.433" transform="translate(120.35 32.778)"/>
      <path id="Shape-32" data-name="Shape" d="M1.144,1.163C1.137,1.031,1.128.91,1.121.777" transform="translate(104.04 37.254)" fill="#6295e6"/>
      <path id="Shape-33" data-name="Shape" d="M27.461,22.076c-1.113,5.2-6.143-.459-11.5-2.028C-28.975,6.8,36.142-18.538,27.461,22.076" transform="translate(98.633 7.564)"/>
      <path id="Shape-34" data-name="Shape" d="M16.617,6.386a.825.825,0,0,1-.25-.04C6.095,2.991.658,1.594.6,1.581A.8.8,0,0,1,1,.024c.054.014,5.533,1.422,15.865,4.8a.8.8,0,0,1-.25,1.566" transform="translate(85.243 108.714)"/>
      <path id="Shape-35" data-name="Shape" d="M.8,4.395A.8.8,0,0,1,0,3.6a12.672,12.672,0,0,1,.091-1.48A11.145,11.145,0,0,0,.173.815.8.8,0,0,1,.964,0H.976a.8.8,0,0,1,.8.791,12.641,12.641,0,0,1-.091,1.493,11.258,11.258,0,0,0-.082,1.3.8.8,0,0,1-.792.814Z" transform="translate(109.661 86.39)"/>
      <path id="Shape-36" data-name="Shape" d="M0,49.416,64.221,60.39,94.456,77.425s33.43-7.967,44.683-31.028S138.95,5.265,136.1.436C130.341,1.871,82.781,0,82.781,0s-28.2,14.089-48.9,26.44A325.985,325.985,0,0,0,0,49.416" transform="translate(13.838 140.255)" fill="#ff0e11"/>
      <path id="Shape-37" data-name="Shape" d="M.8,13.7A.8.8,0,0,1,.05,12.623c.9-2.456,3.236-9.365,3.2-11.808A.8.8,0,1,1,4.855.792C4.9,4.03,1.693,12.8,1.557,13.177A.8.8,0,0,1,.8,13.7" transform="translate(133.513 164.153)"/>
      <path id="Shape-38" data-name="Shape" d="M75.783,15.176C59.537,18.593,38.6,20.681,22.788,28.118c-2.393,1.123-12.063,7.3-13.439,9.127s6.883-1.69,6.883-1.69S.324,39.636,0,40.771c-.3,1.075,22.215-.048,27.02-1.352s5.131-1.34,7.965-2.246c4.439-1.413,26.33-2.475,44.437-2.209,12.781.169,24.684-.869,24.684-.869a66.642,66.642,0,0,0,.21-11.832C103.817,16.432,98.745,0,98.745,0" transform="translate(74.282 92.131)" fill="#fff"/>
      <path id="Shape-39" data-name="Shape" d="M5.545,42.805c-2.826,0-4.876-.164-5.288-.58a.978.978,0,0,1-.231-.867c.11-.39.341-1.207,9.494-3.813,1.572-2.037,11.35-8.238,13.723-9.351C35.1,22.62,50.024,19.989,63.188,17.668c4.666-.822,9.075-1.6,13.227-2.474a.8.8,0,0,1,.33,1.572c-4.177.879-8.6,1.658-13.279,2.483-13.065,2.3-27.874,4.915-39.539,10.4A100.446,100.446,0,0,0,13.094,36.56q1.712-.458,3.734-.978a.8.8,0,0,1,.514,1.516C11.5,39.584,10.124,39.548,9.62,39.2c-2.573.743-4.839,1.448-6.34,1.992,5.6.174,20.429-.691,24.328-1.748l2.939-.792c2.172-.582,2.9-.778,4.992-1.444,4.484-1.427,26.2-2.516,44.693-2.248,10.884.139,21.27-.6,23.943-.813a65.548,65.548,0,0,0,.14-11.017c-.489-5.679-5.491-21.931-5.542-22.094a.8.8,0,0,1,1.535-.474c.208.675,5.1,16.581,5.607,22.431a66.665,66.665,0,0,1-.213,12,.8.8,0,0,1-.728.705c-.117.01-12.082,1.037-24.764.872-18.029-.264-39.908.811-44.183,2.172-2.123.677-2.864.877-5.065,1.466L28.03,41c-2.565.7-15.14,1.807-22.485,1.807" transform="translate(73.485 91.327)"/>
      <path id="Shape-40" data-name="Shape" d="M5.487,15.237C-6.185,8.5,3.088-2.366,11.8.459s3.622,20.512-6.317,14.778" transform="translate(121.567 0)"/>
      <path id="Shape-41" data-name="Shape" d="M.8,13.932a.8.8,0,0,1-.371-1.516C4.209,10.458,7.969,8.338,11.6,6.289c3.67-2.069,7.464-4.209,11.305-6.2a.8.8,0,1,1,.739,1.427c-3.815,1.978-7.6,4.11-11.256,6.172s-7.419,4.183-11.22,6.155a.813.813,0,0,1-.37.089" transform="translate(77.846 185.319)"/>
      <path id="Shape-42" data-name="Shape" d="M.8,18.931a.8.8,0,0,1-.062-1.6L225.624,0a.821.821,0,0,1,.862.739.8.8,0,0,1-.739.862L.866,18.929l-.063,0" transform="translate(9.044 122.356)"/>
      <path id="Shape-43" data-name="Shape" d="M2.5,16.4h-.01a.8.8,0,0,1-.793-.813A121.629,121.629,0,0,0,.022.989.8.8,0,1,1,1.583.617,121.356,121.356,0,0,1,3.307,15.6a.8.8,0,0,1-.8.793" transform="translate(149.806 95.3)"/>
    </g>
    <path id="Shape-44" data-name="Shape" d="M16.9,48.605,0,5.155,68.711,0,86.644,43.717Z" transform="translate(23.711 88.469)" fill="#fff"/>
    <g id="Group-5" data-name="Group" transform="translate(23.135 88.081)">
      <path id="Shape-45" data-name="Shape" d="M17.664,49.97a.807.807,0,0,1-.747-.51L.054,6.221A.8.8,0,0,1,.742,5.133L69.311,0c.023,0,.046,0,.07,0a.8.8,0,0,1,.732.5L88.009,44a.8.8,0,0,1-.687,1.1l-69.6,4.864ZM68.851,1.643h0L1.943,6.649,18.2,48.329l67.9-4.745L68.851,1.643Z" transform="translate(0 0)"/>
      <path id="Shape-46" data-name="Shape" d="M67.874,32.751a.8.8,0,0,1-.744-.5L54.815,1.642.861,5.609A.79.79,0,0,1,0,4.869a.8.8,0,0,1,.741-.857L55.282,0a.8.8,0,0,1,.8.5L68.618,31.652a.8.8,0,0,1-.445,1.042.792.792,0,0,1-.3.058" transform="translate(9.001 7.213)"/>
    </g>
  </g>
</svg>
